<?xml version="1.0" encoding="UTF-8" standalone="no"?>
<svg
   xmlns:dc="http://purl.org/dc/elements/1.1/"
   xmlns:cc="http://creativecommons.org/ns#"
   xmlns:rdf="http://www.w3.org/1999/02/22-rdf-syntax-ns#"
   xmlns:svg="http://www.w3.org/2000/svg"
   xmlns="http://www.w3.org/2000/svg"
   xmlns:xlink="http://www.w3.org/1999/xlink"
   xmlns:sodipodi="http://sodipodi.sourceforge.net/DTD/sodipodi-0.dtd"
   xmlns:inkscape="http://www.inkscape.org/namespaces/inkscape"
   version="1.1"
   id="svg2"
   viewBox="0 0 32 32"
   sodipodi:docname="system.svg"
   inkscape:version="1.0.1 (3bc2e813f5, 2020-09-07)"
   width="32"
   height="32">
  <style
     id="style917">
.ColorScheme-Text { 
    color:#eff0f1;
}
</style>
  <sodipodi:namedview
     pagecolor="#ffffff"
     bordercolor="#000000"
     borderopacity="1"
     objecttolerance="10"
     gridtolerance="10"
     guidetolerance="10"
     inkscape:pageopacity="0"
     inkscape:pageshadow="2"
     inkscape:window-width="1920"
     inkscape:window-height="996"
     id="namedview78"
     showgrid="false"
     inkscape:zoom="3.5692142"
     inkscape:cx="34.334638"
     inkscape:cy="21.675452"
     inkscape:window-x="0"
     inkscape:window-y="0"
     inkscape:window-maximized="1"
     inkscape:current-layer="svg2"
     showguides="false"
     inkscape:guide-bbox="true"
     inkscape:lockguides="true"
     inkscape:document-rotation="0"
     inkscape:pagecheckerboard="0"
     inkscape:showpageshadow="false"
     inkscape:deskcolor="#d1d1d1">
    <sodipodi:guide
       position="40,18"
       orientation="0.70710678,0.70710678"
       id="guide948"
       inkscape:locked="true" />
    <sodipodi:guide
       position="38,16"
       orientation="-0.70710678,0.70710678"
       id="guide950"
       inkscape:locked="true" />
    <inkscape:grid
       type="xygrid"
       id="grid436"
       originx="-22"
       originy="-95.999995"
       spacingy="1"
       spacingx="1"
       units="px"
       visible="false" />
  </sodipodi:namedview>
  <metadata
     id="metadata62">
    <rdf:RDF>
      <cc:Work
         rdf:about="">
        <dc:format>image/svg+xml</dc:format>
        <dc:type
           rdf:resource="http://purl.org/dc/dcmitype/StillImage" />
      </cc:Work>
    </rdf:RDF>
  </metadata>
  <defs
     id="defs3051">
    <style
       type="text/css"
       id="current-color-scheme">.ColorScheme-Text { color:#eff0f1; }
.ColorScheme-Background { color:#eff0f1; }
.ColorScheme-Highlight { color:#3daee9; }
.ColorScheme-ViewText { color:#31363b; }
.ColorScheme-ViewBackground { color:#fcfcfc; }
.ColorScheme-ViewHover { color:#93cee9; }
.ColorScheme-ViewFocus { color:#3daee9; }
.ColorScheme-ButtonText { color:#31363b; }
.ColorScheme-ButtonBackground { color:#eff0f1; }
.ColorScheme-ButtonHover { color:#93cee9; }
.ColorScheme-ButtonFocus { color:#3daee9; }
</style>
  </defs>
  <g
     id="22-22-system-log-out"
     transform="translate(-22,-86.000005)">
    <path
       id="path7"
       d="m 11,52 c 4.98602,0 9,-4.01398 9,-9 0,-4.986022 -4.01398,-9 -9,-9 -4.986022,0 -9,4.013978 -9,9 0,4.98602 4.013978,9 9,9 z m 0,-1.125 c -4.362778,0 -7.875,-3.51222 -7.875,-7.875 0,-4.362778 3.512222,-7.875 7.875,-7.875 4.36278,0 7.875,3.512222 7.875,7.875 0,4.36278 -3.51222,7.875 -7.875,7.875 z M 9.54541,47.5 13.25,43.795411 14.045411,43 13.25,42.204589 9.54541,38.5 8.75,39.295409 12.454589,43 8.75,46.704589 Z"
       style="fill:#1e2431;fill-opacity:1;stroke:none;stroke-width:1;stroke-dasharray:none"
       class="ColorScheme-Text" />
    <path
       id="path9"
       d="M 0,32 V 54 H 22 V 32 Z"
       style="fill:none" />
  </g>
  <g
     id="system-log-out"
     transform="translate(-22,-63.999995)">
    <path
       id="path12"
       d="M 38,28 A 12,12 0 0 0 50,16 12,12 0 0 0 38,4 12,12 0 0 0 26,16 12,12 0 0 0 38,28 Z m 0,-1 A 11,11 0 0 1 27,16 11,11 0 0 1 38,5 11,11 0 0 1 49,16 11,11 0 0 1 38,27 Z M 34.730469,24 43,16 34.730469,8 34,8.707031 41.539062,16 34,23.292969 Z"
       style="fill:#1e2431;fill-opacity:1;stroke:none"
       class="ColorScheme-Text" />
    <path
       id="path14"
       d="M 22,0 V 32 H 54 V 0 Z"
       style="opacity:1;fill:none" />
  </g>
  <g
     id="22-22-system-lock-screen"
     transform="translate(-22,-86.000005)">
    <path
       id="path17"
       d="m 65.25,130 c -2.493,0 -4.5,2.007 -4.5,4.5 V 139 H 58.5 V 140.125 148 H 59.625 70.875 72 v -9 H 70.875 69.75 v -4.5 c 0,-2.493 -2.007,-4.5 -4.5,-4.5 z m 0,1.125 c 1.869757,0 3.375,1.75612 3.375,3.9375 V 139 h -6.75 v -3.9375 c 0,-2.18138 1.50525,-3.9375 3.375,-3.9375 z m -5.625,9 h 11.25 v 6.75 h -11.25 z"
       style="fill:#1e2431;fill-opacity:1;stroke:none;stroke-width:1;stroke-dasharray:none"
       class="ColorScheme-Text" />
    <path
       id="path19"
       d="m 54,128 v 22 h 22 v -22 z"
       style="fill:none" />
  </g>
  <g
     transform="translate(32,32)"
     id="system-lock-screen">
    <path
       id="path22"
       d="M 38,4 C 31.372583,4 26,9.372583 26,16 26,22.627417 31.372583,28 38,28 44.627417,28 50,22.627417 50,16 50,9.372583 44.627417,4 38,4 Z m 0,1 C 44.075132,5 49,9.9248678 49,16 49,22.075132 44.075132,27 38,27 31.924868,27 27,22.075132 27,16 27,9.9248678 31.924868,5 38,5 Z m 0,3 c -2.216,0 -4,1.784 -4,4 v 4 h -2 v 1 7 h 1 10 1 V 16 H 43 42 V 12 C 42,9.784 40.216,8 38,8 Z m 0,1 c 1.662,0 3,1.561 3,3.5 V 16 H 35 V 12.5 C 35,10.561 36.338,9 38,9 Z m -5,8 h 10 v 6 H 33 Z"
       style="fill:#1e2431;fill-opacity:1;stroke:none"
       class="ColorScheme-Text" />
    <path
       id="path24"
       d="M 22,0 V 32 H 54 V 0 Z"
       style="opacity:1;fill:none" />
  </g>
  <g
     transform="translate(90,-32)"
     id="22-22-system-save-session">
    <path
       id="path37"
       d="m 2.999995,13.003509 v 0 0.9999 15 H 4 19 v -0.9999 -11.0001 -0.69915 h -0.007 l 0.007,-0.015 -3.29297,-3.29295 -0.008,0.015 v -0.015 h -0.69922 -12 z M 4,14.005359 h 3 v 4.00005 1.00005 h 8 v -1.00005 -4.00005 h 0.29298 L 18,16.712409 v 0.29295 11.0001 h -2 v -7.00005 H 15 7 5.999995 v 7.00005 H 4 Z m 4.000005,0 h 3.90039 v 4.00005 H 8.000005 Z M 7,22.005459 h 8 v 6 H 7 Z"
       style="fill:#1e2431;fill-opacity:1;stroke:none"
       class="ColorScheme-Text" />
    <path
       id="path39"
       d="M 0,10 V 32 H 22 V 10 Z"
       style="opacity:1;fill:none" />
  </g>
  <g
     transform="translate(90,-32)"
     id="system-save-session">
    <path
       id="path42"
       d="m 26,4 v 24 h 5 14 5 V 10 L 49,9 45,5 44,4 H 43 32 Z m 1,1 h 5 v 8 H 43 V 5 h 0.585938 L 49,10.414062 V 27 H 45 V 19 H 31 v 8 h -4 z m 6,0 h 6 v 7 h -6 z m -1,15 h 12 v 7 H 32 Z"
       style="fill:#1e2431;fill-opacity:1;stroke:none"
       class="ColorScheme-Text" />
    <path
       id="path44"
       d="M 22,0 V 32 H 54 V 0 Z"
       style="opacity:1;fill:none" />
  </g>
  <g
     id="22-22-system-shutdown"
     transform="translate(-22,-86.000005)">
    <path
       id="path47"
       d="m 9.875006,66 v 7.875006 h 2.249988 V 66 Z m -1.12501,0.29884 C 4.862519,67.293998 2,70.793652 2,75 c 0,4.985994 4.014006,9 9,9 4.985994,0 9,-4.014006 9,-9 0,-4.206348 -2.862521,-7.706002 -6.749996,-8.70116 v 1.166743 c 3.256907,0.964326 5.624987,3.956497 5.624987,7.534417 0,4.362742 -3.512249,7.874991 -7.874991,7.874991 -4.362747,0 -7.874989,-3.512249 -7.874989,-7.874991 0,-3.57792 2.368079,-6.570091 5.624985,-7.534417 z"
       style="fill:#1e2431;fill-opacity:1;stroke:none;stroke-width:1;stroke-dasharray:none"
       class="ColorScheme-Text" />
    <path
       id="path49"
       d="M 0,64 V 86 H 22 V 64 Z"
       style="fill:none" />
  </g>
  <g
     transform="translate(-22,-32)"
     id="system-shutdown">
    <path
       id="path52"
       d="M 37,4 V 4.050781 5.0546873 13 h 2 V 5.0507812 4.046875 4 h -1 z m 3,0.1699219 V 5.1914062 A 11,11 0 0 1 49,16 11,11 0 0 1 38,27 11,11 0 0 1 27,16 11,11 0 0 1 36,5.1894531 V 4.1816406 A 12,12 0 0 0 26,16 12,12 0 0 0 38,28 12,12 0 0 0 50,16 12,12 0 0 0 40,4.1699219 Z"
       style="fill:#1e2431;fill-opacity:1;stroke:none"
       class="ColorScheme-Text" />
    <path
       id="path54"
       d="M 22,0 V 32 H 54 V 0 Z"
       style="opacity:1;fill:none" />
  </g>
  <g
     id="22-22-system-switch-user"
     transform="translate(-22,-86.000005)">
    <path
       id="path890"
       d="m 65.644361,34.288 c -2.097253,0 -3.395046,1.33198 -3.581827,2.950643 v 1.073153 l -2.26757,-1.602543 -0.894963,0.698959 2.68489,2.096874 0.894963,0.698959 0.894963,-0.698959 2.68489,-2.096874 -0.894963,-0.698959 -2.048032,1.602543 v -1.073153 c 0,-1.091686 1.122296,-1.896083 2.527437,-1.896465 1.405142,3.82e-4 2.763001,0.804954 2.74345,1.896465 v 0.857047 h 1.054179 v -0.857391 c 0,-1.629405 -1.700161,-2.950299 -3.797414,-2.950299 z m 2.743238,4.861867 c -1.164413,0 -2.108355,0.943944 -2.108355,2.108355 0,1.164415 0.943942,2.108356 2.108355,2.108356 1.164414,0 2.108356,-0.943941 2.108356,-2.108356 0,-1.164411 -0.943942,-2.108355 -2.108356,-2.108355 z m -6.325066,2.108355 a 2.1083545,2.1083555 0 0 0 -2.108355,2.108356 2.1083545,2.1083555 0 0 0 2.108355,2.108356 2.1083545,2.1083555 0 0 0 2.108354,-2.108356 2.1083545,2.1083555 0 0 0 -2.108354,-2.108356 z m 6.341541,3.162535 c -1.601084,0 -2.914009,1.226067 -3.139887,2.816631 0.614446,0.698013 1.015056,1.400081 1.015056,2.45425 v 0 h 2.124831 1.910694 0.634155 c 0.414525,-0.569904 0.63961,-1.263494 0.64033,-1.97657 10e-7,-1.819402 -1.425503,-3.294311 -3.185179,-3.294311 z m -0.05148,1.054177 c 1.162308,0 2.10424,0.884947 2.104238,1.976583 -4.79e-4,0.427848 -0.148285,0.844003 -0.422088,1.185952 h -0.420029 -1.262126 -1.26419 -0.0268 c -0.09029,-0.567689 -0.376538,-1.075145 -0.782394,-1.474204 0.1492,-0.954336 1.015802,-1.688331 2.073356,-1.688331 z m -6.290067,1.054179 A 3.1625321,3.2943036 0 0 0 58.9,49.823417 3.1625321,3.2943036 0 0 0 59.538272,51.8 h 0.625918 1.898343 1.898344 0.630035 a 3.1625321,3.2943036 0 0 0 0.634154,-1.976583 3.1625321,3.2943036 0 0 0 -3.162533,-3.294304 z m 0,1.054176 a 2.1083564,2.3719008 0 0 1 2.108354,2.3719 2.1083564,2.3719008 0 0 1 -0.123535,0.790629 h -3.969631 a 2.1083564,2.3719008 0 0 1 -0.123537,-0.790629 2.1083564,2.3719008 0 0 1 2.108355,-2.3719 z"
       style="fill:#1e2431;fill-opacity:1;stroke:none;stroke-width:1;stroke-dasharray:none"
       class="ColorScheme-Text" />
    <path
       id="path79"
       d="M 54,32 V 54 H 76 V 32 Z"
       style="fill:none" />
  </g>
  <g
     transform="translate(32,-63.999995)"
     id="system-switch-user">
    <path
       id="path84"
       d="M 22,0 V 32 H 54 V 0 Z"
       style="opacity:1;fill:none" />
    <path
       id="path1011"
       transform="translate(-54)"
       d="m 94,8 c -1.285847,0 -2.416677,0.617761 -3.148438,1.5605469 0.329275,0.112144 0.645954,0.2508111 0.945313,0.4179687 C 92.345252,9.3811132 93.12515,9 94,9 c 1.656852,0 3,1.343147 3,3 0,1.398728 -0.960744,2.564273 -2.255859,2.896484 6.21e-4,0.03481 0.0059,0.06856 0.0059,0.103516 0,0.318095 -0.03235,0.627594 -0.08203,0.931641 C 96.557605,15.612437 98,13.980455 98,12 98,9.790862 96.209142,8 94,8 Z m -5,12 c -3.881058,0 -7,2.689616 -7,6.435547 0.0033,0.527414 0.06906,1.051937 0.198034,1.564453 h 1.111737 11.662458 0.884292 C 95.985519,27.487484 95.997113,26.963414 96,26.436 96,22.690069 92.881058,20 89,20 Z m 0.027,0.992 c 3.813868,0 5.973,2.274365 5.973,5.444 -0.0011,0.174256 -0.01135,0.347611 -0.029,0.521 H 83.029 C 83.01135,26.783611 83.00159,26.609803 83,26.435547 83,23.265912 85.179706,20.992 88.972735,20.992 Z m 6.224205,-3.992043 c -0.25686,0 -0.509035,0.01606 -0.758429,0.04297 -0.12585,0.383697 -0.291433,0.751062 -0.492776,1.097662 0.410411,-0.09117 0.830028,-0.138336 1.251205,-0.140627 3.153826,1e-6 5.710515,2.46245 5.710515,5.500033 -9e-4,0.166968 -0.009,0.333807 -0.0264,0.500003 h -4.53029 c 0.108739,0.321192 0.202605,0.648801 0.269709,0.986334 L 101.80938,25 c 0.12388,-0.491162 0.18785,-0.994566 0.19062,-1.500008 0,-3.589871 -3.02155,-6.500039 -6.748795,-6.500038 z M 89,11 c -2.209143,0 -4,1.790862 -4,4 0,2.20914 1.790857,4.000001 4,4 2.209142,1e-6 4,-1.79086 4,-4 0,-2.209138 -1.790858,-4 -4,-4 z m 0,1 c 1.656852,0 3,1.343147 3,3 0,1.656854 -1.343148,3.000001 -3,3 -1.656852,1e-6 -3,-1.343146 -3,-3 0,-1.656853 1.343148,-3 3,-3 z m 3.027,-8.2000013 c -2.034737,0 -3.684211,1.6454851 -3.684211,3.6752924 V 8.090575 L 86.736,6.388 86.123,7.1309525 88.356,9.358 89,10 89.582,9.257328 91.646,7.03 91.002,6.3882909 89.295,8.091 V 7.475 c 0,-1.449863 1.278621,-2.6249178 2.732,-2.6249178 1.453379,0 1.973,0.519045 1.973,1.968908 h 1 C 95,4.718823 93.883088,3.8390773 92.027,3.7999987 Z"
       style="fill:#1e2431;fill-opacity:1;stroke:none"
       class="ColorScheme-Text" />
  </g>
  <g
     id="22-22-system-users"
     transform="translate(-22,-86.000005)">
    <path
       id="path87"
       d="M 68.375,66 C 66.505257,66 65,67.50525 65,69.375 c 0,1.86975 1.505257,3.375 3.375,3.375 1.869743,0 3.375,-1.50525 3.375,-3.375 C 71.75,67.50525 70.244743,66 68.375,66 Z m -6.75,3.375 c -1.869749,0 -3.375,1.50525 -3.375,3.375 0,1.869756 1.505251,3.375 3.375,3.375 1.869747,0 3.375,-1.505244 3.375,-3.375 0,-1.86975 -1.505253,-3.375 -3.375,-3.375 z m 6.75,4.5 c -0.727145,0 -1.412999,0.150853 -2.045659,0.406492 l 0.511962,1.028319 C 67.322599,75.129251 67.828781,75 68.375,75 c 2.493023,0 4.5,2.006975 4.5,4.5 H 68.9375 L 69.5,80.625 H 74 V 79.5 c 0,-3.116276 -2.508726,-5.625 -5.625,-5.625 z m -6.75,3.375 C 58.50873,77.25 56,79.758724 56,82.875 V 84 h 11.25 v -1.125 c 0,-3.116276 -2.508726,-5.625 -5.625,-5.625 z m 0,1.125 c 2.493008,0 4.5,2.006975 4.5,4.5 h -9 c 0,-2.493025 2.006975,-4.5 4.5,-4.5 z"
       style="fill:#1e2431;fill-opacity:1;stroke:none;stroke-width:1.1;stroke-dasharray:none"
       class="ColorScheme-Text" />
    <path
       id="path89"
       d="M 54,64 V 86 H 76 V 64 Z"
       style="fill:none" />
  </g>
  <g
     transform="translate(32,-32)"
     id="system-users">
    <path
       id="path92"
       d="M 42.5,4 A 4.5,4.5 0 0 0 38,8.5 4.5,4.5 0 0 0 42.5,13 4.5,4.5 0 0 0 47,8.5 4.5,4.5 0 0 0 42.5,4 Z m 0,1 A 3.5,3.5 0 0 1 46,8.5 3.5,3.5 0 0 1 42.5,12 3.5,3.5 0 0 1 39,8.5 3.5,3.5 0 0 1 42.5,5 Z m -9,4 C 31.014719,9 29,11.014719 29,13.5 29,15.985281 31.014719,18 33.5,18 35.985281,18 38,15.985281 38,13.5 38,11.014719 35.985281,9 33.5,9 Z m 0,1 A 3.5,3.5 0 0 1 37,13.5 3.5,3.5 0 0 1 33.5,17 3.5,3.5 0 0 1 30,13.5 3.5,3.5 0 0 1 33.5,10 Z m 9,4 c -0.88285,0.003 -1.758266,0.172285 -2.585938,0.5 -0.06618,0.423679 -0.174132,0.839768 -0.322265,1.242188 C 40.494507,15.254879 41.490227,15.000767 42.5,15 c 3.589851,0 6.5,3.134007 6.5,7 h -8.341797 c 0.170323,0.323289 0.325499,0.657112 0.464844,1 H 50 v -1 c 0,-4.418278 -3.357864,-8 -7.5,-8 z m -9,5 C 29.357864,19 26,22.581722 26,27 v 1 h 15 v -1 c 0,-4.418278 -3.357864,-8 -7.5,-8 z m 0,1 c 3.589851,0 6.5,3.134007 6.5,7 H 27 c 0,-3.865993 2.910149,-7 6.5,-7 z"
       style="fill:#1e2431;fill-opacity:1;stroke:none"
       class="ColorScheme-Text" />
    <path
       id="path94"
       d="M 22,0 V 32 H 54 V 0 Z"
       style="opacity:1;fill:none" />
  </g>
  <g
     id="22-22-system-search"
     transform="translate(-22,-86.000005)">
    <path
       id="path61"
       d="M 8.75,2 C 5.0104949,2 2,5.0104946 2,8.75 c 0,3.739505 3.0104949,6.75 6.75,6.75 1.666362,0 3.184404,-0.601522 4.35938,-1.595213 L 19.204589,20 20,19.204589 13.904788,13.10938 C 14.898478,11.934404 15.5,10.416361 15.5,8.75 15.5,5.0104946 12.489505,2 8.75,2 Z m 0,1.125 c 3.116261,0 5.625,2.5087446 5.625,5.625 0,3.116261 -2.508739,5.625 -5.625,5.625 -3.1162552,0 -5.625,-2.508739 -5.625,-5.625 0,-3.1162554 2.5087448,-5.625 5.625,-5.625 z"
       style="fill:#1e2431;fill-opacity:1;stroke:none;stroke-width:1;stroke-dasharray:none"
       class="ColorScheme-Text" />
    <path
       id="path63"
       d="M 0,0 V 22 H 22 V 0 Z"
       style="fill:none" />
  </g>
  <g
     id="system-search"
     transform="translate(-22,-95.999995)">
    <path
       id="path66"
       d="m 35,4 a 9,9 0 0 0 -9,9 9,9 0 0 0 9,9 9,9 0 0 0 5.994141,-2.298828 L 49.292969,28 50,27.292969 41.699219,18.992187 A 9,9 0 0 0 44,13 9,9 0 0 0 35,4 Z m 0,1 a 8,8 0 0 1 8,8 8,8 0 0 1 -8,8 8,8 0 0 1 -8,-8 8,8 0 0 1 8,-8 z"
       style="fill:#1e2431;fill-opacity:1;stroke:none"
       class="ColorScheme-Text" />
    <path
       id="path68"
       d="M 22,0 V 32 H 54 V 0 Z"
       style="opacity:1;fill:none" />
  </g>
  <g
     transform="translate(86,-63.999995)"
     id="system-user-list">
    <path
       id="path110"
       d="m 45,9 c -0.58947,0 -1.13295,0.174573 -1.59375,0.46875 0.04318,0.464252 0.0075,0.922667 -0.008,1.335882 C 43.775357,10.29878 44.369053,10.00054 45,10 c 1.104569,0 2,0.895431 2,2 0,1.104569 -0.895431,2 -2,2 -1.040548,-5.56e-4 -1.906833,-0.798896 -1.99219,-1.835938 -0.184344,0.419479 -0.464656,0.770321 -0.6956,1.09959 -10e-4,0.0013 -0.003,0.0026 -0.004,0.0039 C 42.78421,14.287279 43.79697,15 45,15 c 1.66119,0 2.99805,-1.338 2.99805,-3 0,-1.662 -1.33686,-3 -2.99805,-3 z m -6.99999,9 C 42.43204,18 46,21.56798 46,26 H 30 c 0,-4.43202 3.56798,-8 8.00001,-8 z m 10e-6,-1 C 33.01445,17 29,20.716633 29,25.333333 V 27 H 47 V 25.333333 C 47,20.716633 42.98557,17 38.00002,17 Z m 6.97654,-1 c -1.26188,4.88e-4 -2.39619,0.47884 -3.27539,1.240234 0.380034,0.156147 0.766084,0.335754 1.142399,0.50783 0.005,0.0025 0.009,0.0052 0.0137,0.0078 C 43.47258,17.305934 44.19048,17 44.97461,17 c 2.22686,5e-5 4.02344,2.337992 4.02344,4 h -2.72852 c 0.196162,0.339095 0.301576,0.64811 0.449,1 H 50 v -1 c 0,-2.769366 -2.2402,-4.998947 -5.02148,-5 z M 38,5.9999995 c 2.20915,0 4,1.7908576 4,4.0000005 0,2.209141 -1.79085,4 -4,4 -2.20915,0 -4,-1.790859 -4,-4 0,-2.2091429 1.79085,-4.0000005 4,-4.0000005 z m 0,-1 c -2.76144,0 -5,2.2385703 -5,5.0000005 0,2.76143 2.23856,5 5,5 2.350785,0 4.322665,-1.622301 4.857137,-3.808418 C 42.950498,10.809711 43,10.410637 43,10 43,7.2385698 40.76142,4.9999995 38,4.9999995 Z M 31.02344,16 c 1.26188,4.88e-4 2.39619,0.47884 3.27539,1.240234 -0.404465,0.162919 -0.805479,0.355411 -1.156104,0.515606 C 32.52742,17.305934 31.80952,17 31.02539,17 c -2.22686,5e-5 -4.02344,2.337992 -4.02344,4 h 2.72852 c -0.186972,0.33326 -0.318326,0.689701 -0.449,1 H 26 v -1 c 0,-2.769366 2.2402,-4.998947 5.02148,-5 z M 30.99805,9 c 0.58947,0 1.13295,0.174573 1.59375,0.46875 -0.04841,0.460072 -0.0093,0.927542 0.008,1.33588 C 32.222693,10.29878 31.628997,10.00054 30.99805,10 c -1.104569,0 -2,0.895431 -2,2 0,1.104569 0.895431,2 2,2 1.040548,-5.56e-4 1.906833,-0.798896 1.99219,-1.835938 0.188312,0.402683 0.471649,0.770111 0.6956,1.09959 10e-4,0.0013 0.003,0.0026 0.004,0.0039 C 33.21384,14.287279 32.20108,15 30.99805,15 29.33686,15 28,13.662 28,12 28,10.338 29.33686,9.000001 30.99805,9 Z"
       style="fill:#1e2431;fill-opacity:1;stroke:none"
       class="ColorScheme-Text" />
    <path
       id="path84-3"
       d="M 22,0 V 32 H 54 V 0 Z"
       style="opacity:1;fill:none" />
  </g>
  <g
     transform="translate(90)"
     id="system-user-prompt">
    <path
       id="path44-5"
       d="M 22,0 V 32 H 54 V 0 Z"
       style="opacity:1;fill:none" />
    <path
       id="path889"
       d="m 37,10.75 v 1.5 h 5 v -1.5 z m -4,0 v 1.5 h 3 v -1.5 z m -6,0 v 1.5 h 5 v -1.5 z M 26,9 h 24 v 5 H 26 Z M 25,8 v 7 H 51 V 8 Z m 1,10 h 24 v 5 H 26 Z m -1,-1 v 7 h 26 v -7 z m 3.5,2 C 27.671573,19 27,19.671573 27,20.5 27,21.328427 27.671573,22 28.5,22 29.328427,22 30,21.328427 30,20.5 30,19.671573 29.328427,19 28.5,19 Z m 4,0 C 31.671573,19 31,19.671573 31,20.5 31,21.328427 31.671573,22 32.5,22 33.328427,22 34,21.328427 34,20.5 34,19.671573 33.328427,19 32.5,19 Z m 4,0 C 35.671573,19 35,19.671573 35,20.5 35,21.328427 35.671573,22 36.5,22 37.328427,22 38,21.328427 38,20.5 38,19.671573 37.328427,19 36.5,19 Z m 4,0 C 39.671573,19 39,19.671573 39,20.5 39,21.328427 39.671573,22 40.5,22 41.328427,22 42,21.328427 42,20.5 42,19.671573 41.328427,19 40.5,19 Z"
       style="fill:#1e2431;fill-opacity:1;stroke:none"
       class="ColorScheme-Text" />
  </g>
  <g
     transform="matrix(0.6875,0,0,0.6875,74.875,10)"
     id="22-22-system-user-prompt"
     style="stroke-width:1.45455">
    <path
       id="path909-5"
       d="m 35.818183,21.09091 a 0.72727275,0.72727275 0 0 1 -0.727272,0.727273 0.72727275,0.72727275 0 0 1 -0.727273,-0.727273 0.72727275,0.72727275 0 0 1 0.727273,-0.727273 0.72727275,0.72727275 0 0 1 0.727272,0.727273 z m -2.181818,0 a 0.72727275,0.72727275 0 0 1 -0.727273,0.727273 0.72727275,0.72727275 0 0 1 -0.727272,-0.727273 0.72727275,0.72727275 0 0 1 0.727272,-0.727273 0.72727275,0.72727275 0 0 1 0.727273,0.727273 z m -2.181818,0 a 0.72727275,0.72727275 0 0 1 -0.727273,0.727273 0.72727275,0.72727275 0 0 1 -0.727273,-0.727273 0.72727275,0.72727275 0 0 1 0.727273,-0.727273 0.72727275,0.72727275 0 0 1 0.727273,0.727273 z m -2.181818,0 a 0.72727275,0.72727275 0 0 1 -0.727273,0.727273 0.72727275,0.72727275 0 0 1 -0.727273,-0.727273 0.72727275,0.72727275 0 0 1 0.727273,-0.727273 0.72727275,0.72727275 0 0 1 0.727273,0.727273 z m 5.81818,-10.909091 H 38 v 1.454545 h -2.909091 z m -2.909091,0 h 1.454545 v 1.454545 h -1.454545 z m -4.363635,0 h 2.909091 v 1.454545 h -2.909091 z m -2.909091,7.272727 v 7.272728 h 26.181819 v -7.272728 z m 1.454546,1.454546 h 23.272728 v 4.363636 H 26.363638 Z M 24.909097,7.2727345 V 14.545462 H 51.090916 V 7.2727345 Z M 26.363643,8.72728 h 23.272728 v 4.363637 H 26.363643 Z"
       style="fill:#1e2431;fill-opacity:1;stroke:none"
       class="ColorScheme-Text" />
    <path
       id="path44-5-7"
       d="M 22,0 V 32 H 54 V 0 Z"
       style="opacity:1;fill:none" />
  </g>
  <g
     transform="matrix(0.6875,0,0,0.6875,70.875,-54)"
     id="22-22-system-user-list"
     style="stroke-width:1.45455">
    <path
       id="path340-1-2"
       d="m 44.552119,10.181819 c -0.374531,0 -0.720437,0.103636 -1.028408,0.269887 1.89e-4,0.0019 -0.09527,0.05843 -0.09498,0.06047 0.114764,1.452661 -0.249454,2.376872 -0.665091,3.098603 0.396059,0.563505 1.048422,0.934682 1.788481,0.934682 1.025803,0 1.886094,-0.707989 2.119316,-1.661932 0.04073,-0.166636 0.06255,-0.340697 0.06255,-0.519887 -1.4e-5,-1.204987 -0.976843,-2.181818 -2.181818,-2.181818 z m -13.097528,0 c 0.374531,0 0.720436,0.103636 1.028407,0.269887 -1.89e-4,0.0019 0.09527,0.05843 0.09498,0.06047 -0.114764,1.452661 0.249455,2.376872 0.665091,3.098603 -0.396058,0.563505 -1.048422,0.934682 -1.78848,0.934682 -1.025804,0 -1.886095,-0.707989 -2.119317,-1.661932 -0.04073,-0.166636 -0.06254,-0.340697 -0.06254,-0.519887 1.4e-5,-1.204987 0.976844,-2.181818 2.181818,-2.181818 z m -4.4e-5,5.818168 c 1.226473,0 2.302211,0.565518 2.960233,1.477273 -0.369265,0.195739 -0.745004,0.436224 -1.070982,0.630662 -0.358356,-0.422659 -1.025004,-0.65339 -1.889251,-0.65339 -1.309454,0 -2.18182,0.960799 -2.18182,2.909104 h 1.818182 l -0.727273,1.454546 h -2.545454 l 1e-6,-2.21024 c 10e-7,-2.093049 1.622008,-3.607955 3.636364,-3.607955 z m 13.09091,1.4e-5 c -1.226473,0 -2.302211,0.565519 -2.960233,1.477273 0.369265,0.19574 0.745004,0.436224 1.070982,0.630662 0.358356,-0.422659 1.025003,-0.653389 1.889251,-0.653389 1.309454,0 2.181816,0.993887 2.181816,2.909089 h -1.818182 l 0.727273,1.454546 h 2.545454 l 2e-6,-2.210225 c 2e-6,-2.093049 -1.622007,-3.607956 -3.636363,-3.607956 z M 38,18.909091 c 2.909091,0 5.818182,1.454545 5.818182,5.818182 H 32.181818 c 0,-4.363637 2.909091,-5.818182 5.818182,-5.818182 z m 0,-1.454546 c -4.230226,0 -7.261221,2.974329 -7.269818,7.272728 l -0.0029,1.454545 h 14.545454 l -0.0029,-1.454545 C 45.261176,20.405961 42.230211,17.454545 38,17.454545 Z m 7.5e-5,-11.6363628 c -2.81168,0 -5.090953,2.2792686 -5.090953,5.0909048 0,2.811643 2.279273,5.090914 5.090953,5.090914 2.393556,0 4.401294,-1.651796 4.945498,-3.877663 0.09498,-0.388814 0.145469,-0.795143 0.145469,-1.213251 0,-2.8116362 -2.279316,-5.0909048 -5.090967,-5.0909048 z"
       style="fill:#1e2431;fill-opacity:1;stroke:none"
       class="ColorScheme-Text" />
    <path
       id="path84-3-7"
       d="M 22,0 V 32 H 54 V 0 Z"
       style="opacity:1;fill:none" />
  </g>
  <g
     id="system-reboot"
     transform="translate(54)">
    <path
       id="path32"
       d="m 27.764683,18.364791 a 12,12 0 0 0 -0.440144,-6.294148 l -6.333041,4.211513 0.557664,0.833268 5.185866,-3.449993 a 11,11 0 0 1 0.04927,4.502294 11,11 0 0 1 -12.952018,8.616568 11,11 0 0 1 -4.9698802,-2.43137 l -0.8585654,0.574494 a 12,12 0 0 0 5.6313796,2.837266 12,12 0 0 0 14.129474,-9.399892 z M 24,7.073353 A 12,12 0 0 0 18.364791,4.2353171 12,12 0 0 0 4.2353171,13.635209 a 12,12 0 0 0 0.440144,6.294148 l 6.3330409,-4.211513 -0.553834,-0.832498 -5.1862518,3.451908 a 11,11 0 0 1 -0.052709,-4.504979 11,11 0 0 1 12.9520178,-8.6165676 11,11 0 0 1 4.96988,2.4313695 z"
       style="fill:#1e2431;fill-opacity:1;stroke:none"
       class="ColorScheme-Text" />
    <path
       id="path34"
       d="M 0,0 V 32 H 32 V 0 Z"
       style="fill:none" />
    <circle
       style="display:inline;fill:#1e2431;fill-opacity:1;stroke:none;stroke-width:0.0204958"
       id="path1389"
       cx="16"
       cy="16"
       r="2"
       class="ColorScheme-Text" />
  </g>
  <g
     id="system-suspend"
     transform="translate(0,32)">
    <path
       id="path74"
       d="M 0,0 V 32 H 32 V 0 Z"
       style="fill:none" />
    <path
       d="m 10.66201,13 v 0 h 0.0264 z m 4.70172,7.10995 h 0.0152 c 0,1.46559 1.19911,2.66454 2.66454,2.66454 v 0.0155 c -1.46559,0 -2.66454,1.19912 -2.66454,2.66427 h -0.0152 c 0,-1.46511 -1.19912,-2.66427 -2.66455,-2.66427 v -0.0155 c 1.46559,0 2.66455,-1.19911 2.66455,-2.66454 z M 10.66201,13 h 0.0264 c 0,2.56405 2.09796,4.66201 4.66161,4.66201 v 0.0264 c -2.56373,0 -4.66161,2.09764 -4.66161,4.66161 h -0.0264 C 10.66201,19.78597 8.56405,17.68841 6,17.68841 v -0.0264 c 2.56405,0 4.66201,-2.09796 4.66201,-4.66201 z"
       fill-rule="evenodd"
       id="path67"
       sodipodi:nodetypes="cccccccccccccccccccccc"
       style="fill:#1e2431;fill-opacity:1;stroke-width:0.0397071"
       class="ColorScheme-Text" />
    <path
       id="path22-6"
       d="M 16,4 C 9.372583,4 4,9.372583 4,16 4,22.627417 9.372583,28 16,28 22.627417,28 28,22.627417 28,16 28,9.372583 22.627417,4 16,4 Z m 0,1 C 22.075132,5 27,9.9248678 27,16 27,22.075132 22.075132,27 16,27 9.9248678,27 5,22.075132 5,16 5,9.9248678 9.9248678,5 16,5 Z m 0,10e-6 z"
       fill="currentColor"
       sodipodi:nodetypes="ssssssssssccccccc"
       style="fill:#1e2431;fill-opacity:1" />
    <path
       d="m 21.38146,19.05426 v 0 h -0.0264 z m -4.70172,-7.10995 h -0.0152 C 16.66454,10.47872 15.46543,9.27977 14,9.27977 v -0.0155 c 1.46559,0 2.66454,-1.19912 2.66454,-2.66427 h 0.0152 c 0,1.46511 1.19912,2.66427 2.66455,2.66427 v 0.0155 c -1.46559,0 -2.66455,1.19911 -2.66455,2.66454 z m 4.70172,7.10995 h -0.0264 c 0,-2.56405 -2.09796,-4.66201 -4.66161,-4.66201 v -0.0264 c 2.56373,0 4.66161,-2.09764 4.66161,-4.66161 h 0.0264 c 0,2.56405 2.09796,4.66161 4.66201,4.66161 v 0.0264 c -2.56405,0 -4.66201,2.09796 -4.66201,4.66201 z"
       fill-rule="evenodd"
       id="path67-6"
       sodipodi:nodetypes="cccccccccccccccccccccc"
       style="fill:#1e2431;fill-opacity:1;stroke-width:0.0397071"
       class="ColorScheme-Text" />
  </g>
  <g
     id="22-22-system-suspend"
     transform="translate(-21.999976,41.999975)">
    <g
       id="g1970">
      <path
         id="path69"
         d="M 0,0 V 22 H 21.999999 V 0 Z"
         style="fill:none;stroke-width:1.02353" />
      <path
         d="m 7.4965042,8.7 v 0 h 0.0198 z m 3.5262968,5.332463 h 0.01144 c 0,1.099192 0.899338,1.998406 1.998407,1.998406 v 0.01163 c -1.099191,0 -1.99841,0.899349 -1.99841,1.998208 h -0.01144 c 0,-1.098839 -0.899343,-1.998208 -1.9984148,-1.998208 v -0.01163 c 1.0991878,0 1.9984148,-0.899333 1.9984148,-1.998406 z M 7.4965042,8.7 h 0.0198 c 0,1.923038 1.573477,3.496508 3.4962148,3.496508 v 0.0198 c -1.9228008,0 -3.4962148,1.573229 -3.4962148,3.496207 h -0.0198 C 7.4965042,13.789479 5.9230412,12.216308 4,12.216308 v -0.0198 c 1.9230412,0 3.4965042,-1.57347 3.4965042,-3.496508 z"
         fill-rule="evenodd"
         id="path67-0"
         sodipodi:nodetypes="cccccccccccccccccccccc"
         style="fill:#1e2431;fill-opacity:1;stroke-width:0.0297808"
         class="ColorScheme-Text" />
      <path
         id="path13"
         d="m 11,2 c -4.985998,0 -9,4.014002 -9,9 0,4.985998 4.014002,9 9,9 4.985998,0 9,-4.014002 9,-9 0,-4.985998 -4.014002,-9 -9,-9 z m 0,1.125 c 4.362749,0 7.875,3.512257 7.875,7.875 0,4.362749 -3.512251,7.875 -7.875,7.875 C 6.637257,18.875 3.125,15.362749 3.125,11 3.125,6.637257 6.637257,3.125 11,3.125 Z m 0,0 z"
         fill="currentColor"
         sodipodi:nodetypes="sssssssssscccccc"
         style="fill:#1e2431;fill-opacity:1" />
      <path
         d="m 14.436143,13.340706 v 0 h -0.0198 z M 10.909847,8.008243 h -0.01144 C 10.898407,6.909052 9.999069,6.009837 8.9,6.009837 v -0.01163 c 1.099192,0 1.99841,-0.899348 1.99841,-1.998207 h 0.01144 c 0,1.098839 0.899344,1.998207 1.998416,1.998207 v 0.01163 c -1.099188,0 -1.998416,0.899333 -1.998416,1.998406 z m 3.526296,5.332463 h -0.0198 c 0,-1.923037 -1.573477,-3.496507 -3.496214,-3.496507 v -0.0198 c 1.9228,0 3.496214,-1.57323 3.496214,-3.496208 h 0.0198 c 0,1.923036 1.573463,3.496207 3.496505,3.496207 v 0.0198 c -1.923042,0 -3.496505,1.57347 -3.496505,3.496508 z"
         fill-rule="evenodd"
         id="path67-0-7"
         sodipodi:nodetypes="cccccccccccccccccccccc"
         style="fill:#1e2431;fill-opacity:1;stroke-width:0.0297808"
         class="ColorScheme-Text" />
    </g>
  </g>
  <g
     id="22-22-system-reboot"
     transform="translate(32,9.999995)">
    <path
       id="path27"
       d="M 20,11 C 20,9.37807 19.584706,7.84667 18.839844,6.53516 l -0.773438,0.80859 -0.07031,0.0703 -3.12891,3.09375 0.80859,0.8086 2.777349,-2.81251 C 18.71705,9.28953 18.875,10.12294 18.875,11 c 0,4.36271 -3.51231,7.875 -7.875,7.875 -1.30782,0 -2.53788,-0.31935 -3.62109,-0.87891 L 6.53515,18.83985 C 7.84669,19.58466 9.37815,20 11,20 c 4.98606,0 9,-4.01403 9,-9 z M 15.46484,3.160156 C 14.15332,2.415349 12.62185,2 11,2 6.01395,2 2,6.01404 2,11 c 0,1.62193 0.41529,3.15334 1.16015,4.46485 L 3.93359,14.69141 4.00389,14.62111 7.1328,11.4922 6.32419,10.71878 3.54686,13.49611 C 3.28292,12.71049 3.12498,11.87708 3.12498,11.00002 c 0,-4.36272 3.51231,-7.875001 7.875,-7.875001 1.30782,0 2.53789,0.31936 3.6211,0.878901 z"
       style="fill:#1e2431;fill-opacity:1;stroke:none;stroke-width:1.1;stroke-dasharray:none"
       class="ColorScheme-Text" />
    <path
       id="path29"
       d="M 0,0 V 22 H 22 V 0 Z"
       style="fill:none" />
    <circle
       style="display:inline;fill:#1e2431;fill-opacity:1;stroke:none;stroke-width:0.0153718"
       id="path1389-6"
       cx="11"
       cy="11"
       r="1.5"
       class="ColorScheme-Text" />
  </g>
  <g
     id="22-22-system-suspend-hibernate"
     transform="translate(-22)"
     class="ColorScheme-Text"
     fill="currentColor"
     style="">
    <path
       id="path49-1"
       d="M 0,10 V 32 H 22 V 10 Z"
       fill="none" />
    <path
       d="m 6.3886719,13.9375 -0.015625,0.0078 c -0.2536613,0.127286 -0.3475532,0.442048 -0.2050782,0.6875 l 1.3984375,2.421875 h 0.00195 v 0.002 h -0.00195 v -0.002 L 5.7949219,16.580078 C 5.5243302,16.508107 5.2482462,16.675889 5.1875,16.949219 l -0.00391,0.01758 c -0.058036,0.257998 0.098016,0.515785 0.3535157,0.583984 L 8.2753906,18.285156 9.8457031,21 H 6.7070312 L 4.7011719,18.994141 c -0.1922077,-0.191516 -0.5031048,-0.191516 -0.6953125,0 l -0.011719,0.01172 c -0.1915161,0.192208 -0.1915161,0.503105 0,0.695313 L 5.2929687,21 H 2.4921875 C 2.2204427,21.0002 2.0001998,21.220442 2,21.492187 v 0.01563 C 2.000202,21.77956 2.2204443,21.9998 2.4921875,22 h 2.8007812 l -1.2988281,1.298828 c -0.1915161,0.192208 -0.1915161,0.503105 0,0.695313 l 0.011719,0.01172 c 0.1922077,0.191516 0.5031048,0.191516 0.6953125,0 L 6.7070312,22 c 6.5e-4,1e-6 0.0013,1e-6 0.00195,0 h 3.1308594 l -1.5664063,2.710937 -2.7402344,0.734375 c -0.2555003,0.0682 -0.4115521,0.325986 -0.3535156,0.583985 l 0.00391,0.01758 c 0.060746,0.27333 0.3368302,0.441112 0.6074219,0.369141 l 1.7734375,-0.476563 v -0.002 h 0.00195 l -0.00195,0.002 -1.3984375,2.423828 c -0.1364651,0.236159 -0.055031,0.538254 0.1816406,0.673828 l 0.013672,0.0078 c 0.2352805,0.133812 0.5344518,0.0527 0.6699212,-0.18163 L 8.4296875,26.439453 8.90625,28.210937 c 0.069037,0.260357 0.3344104,0.416971 0.5957031,0.351563 l 0.015625,-0.0039 C 9.7851572,28.49235 9.9462791,28.219408 9.875,27.953125 L 9.140625,25.210937 H 9.138675 L 10.994141,22 H 11 l 1.857422,3.21875 h -0.002 l -0.734375,2.740234 c -0.07197,0.270591 0.09581,0.546675 0.36914,0.607422 l 0.01758,0.0039 c 0.257998,0.05804 0.515785,-0.09802 0.583984,-0.353515 l 0.474609,-1.771485 1.398438,2.423829 c 0.139228,0.241533 0.450989,0.319474 0.6875,0.171875 l 0.01563,-0.0098 c 0.224535,-0.141097 0.297057,-0.434636 0.164062,-0.664063 l -1.398437,-2.421875 h -0.002 v -0.002 h 0.002 v 0.002 l 1.771484,0.47461 c 0.266283,0.0713 0.539243,-0.0898 0.60551,-0.357382 l 0.0039,-0.01563 c 0.0654,-0.261289 -0.0912,-0.526658 -0.351556,-0.595698 L 13.724609,24.716797 12.154297,22 h 3.138672 l 2.005859,2.005859 c 0.192208,0.191516 0.503105,0.191516 0.695313,0 l 0.01172,-0.01172 c 0.191516,-0.192208 0.191516,-0.503105 0,-0.695313 L 16.707031,22 h 2.800781 C 19.779557,21.999801 19.999801,21.779557 20,21.507812 v -0.01563 C 19.999797,21.220439 19.779555,21.000199 19.507812,21 h -2.800781 l 0.865235,-0.865234 c 0.308388,-0.310139 0.08971,-0.838412 -0.347657,-0.839844 h -0.02148 c -0.130452,2.37e-4 -0.255483,0.05222 -0.347656,0.144531 L 15.292969,21 H 14 12.15625 11 L 9.1425781,17.783168 h 0.00195 l 0.734375,-2.740234 C 9.9508507,14.772355 9.783077,14.496296 9.5097656,14.435547 l -0.017578,-0.0039 C 9.2341911,14.37361 8.9764049,14.529659 8.9082031,14.785156 L 8.4335938,16.556641 7.0351562,14.132812 C 6.9052371,13.906968 6.6219063,13.82137 6.3886719,13.9375 Z"
       id="path13731"
       sodipodi:nodetypes="cccccccccscccccccccccssccccccccccccscccccccccccscccccccccscccccsccccccccsccccccccccsscccccccccccccsccccc"
       style="fill:#1e2431;fill-opacity:1" />
    <path
       d="M 11.5,15 A 0.5,0.5 0 0 0 11,15.5 0.5,0.5 0 0 0 11.5,16 h 1.792969 l -2.146485,2.146484 A 0.50005,0.50005 0 0 0 11.5,19 h 3 A 0.5,0.5 0 0 0 15,18.5 0.5,0.5 0 0 0 14.5,18 h -1.792969 l 2.146485,-2.146484 A 0.50005,0.50005 0 0 0 14.5,15 Z"
       id="path14105"
       style="fill:#1e2431;fill-opacity:1" />
    <use
       x="0"
       y="0"
       xlink:href="#path14105"
       id="use14224"
       transform="translate(5,-2)"
       width="100%"
       height="100%" />
  </g>
  <g
     id="system-suspend-hibernate"
     transform="translate(-22)"
     class="ColorScheme-Text"
     fill="currentColor"
     style="">
    <path
       id="path64"
       d="M 22,0 V 32 H 54 V 0 Z"
       fill="none" />
    <path
       d="M 38.5,5 A 0.5,0.5 0 0 0 38,5.5 0.5,0.5 0 0 0 38.5,6 h 1.792969 L 38.146484,8.146484 A 0.50005,0.50005 0 0 0 38.5,9 h 3 A 0.5,0.5 0 0 0 42,8.5 0.5,0.5 0 0 0 41.5,8 H 39.707031 L 41.853516,5.8535156 A 0.50005,0.50005 0 0 0 41.5,5 Z"
       id="path9335"
       style="fill:#1e2431;fill-opacity:1" />
    <use
       x="0"
       y="0"
       xlink:href="#path9335"
       id="use9454"
       transform="translate(7,-1)"
       width="100%"
       height="100%"
       style="fill:#eff0f1;fill-opacity:1" />
    <use
       x="0"
       y="0"
       xlink:href="#path9335"
       id="use9456"
       transform="translate(4,5)"
       width="100%"
       height="100%" />
    <path
       id="path10225-2"
       d="m 35.133678,5.1879004 c -0.206501,-0.007 -0.404066,0.1486945 -0.466796,0.3828156 L 33.81532,8.7504024 31.918834,5.4652469 C 31.780336,5.2253591 31.475133,5.1451035 31.235241,5.2836072 30.995353,5.4221045 30.913144,5.7253547 31.051648,5.9652462 l 1.896484,3.2851574 -3.179688,-0.8515623 c -0.267565,-0.07169 -0.534405,0.05887 -0.597656,0.2949196 l -0.03125,0.1152334 c -0.06325,0.2360519 0.101578,0.4829962 0.36914,0.5546893 l 4.146485,1.1113274 3.190548,5.524995 H 30.707034 L 27.671876,12.96485 c -0.195866,-0.19587 -0.49321,-0.215774 -0.666014,-0.04297 l -0.08398,0.08398 c -0.172804,0.172803 -0.1529,0.470147 0.04297,0.666018 l 2.328121,2.328128 h -3.79297 c -0.277,0 -0.500001,0.222997 -0.499999,0.5 0,0.277 0.222996,0.500001 0.499999,0.500001 l 3.792969,-1e-6 -2.328125,2.328126 c -0.195871,0.195866 -0.215774,0.493211 -0.04297,0.666015 l 0.08398,0.08398 c 0.172802,0.172803 0.470146,0.152899 0.666016,-0.04297 l 3.035162,-3.035151 6.138675,1e-6 -3.142513,5.441797 -4.146484,1.111326 c -0.267563,0.0717 -0.432389,0.318634 -0.369138,0.55469 l 0.03125,0.115231 c 0.06325,0.236052 0.330094,0.366615 0.597656,0.294921 l 3.179689,-0.851562 -1.896484,3.285155 c -0.138499,0.239888 -0.0563,0.543141 0.183594,0.681639 0.239889,0.1385 0.545093,0.05825 0.683593,-0.181639 l 1.896485,-3.285156 0.851564,3.179686 c 0.0717,0.267565 0.31863,0.434345 0.554688,0.371092 l 0.115231,-0.03125 c 0.236052,-0.06325 0.368568,-0.330094 0.296873,-0.597658 l -1.111335,-4.146486 3.429623,-5.939842 3.429937,5.940389 -1.111326,4.146486 c -0.0717,0.26756 0.06082,0.534404 0.296871,0.597657 l 0.115234,0.03125 c 0.236052,0.06325 0.482993,-0.103533 0.554688,-0.371092 l 0.851564,-3.179682 1.896485,3.285156 c 0.138499,0.239884 0.443705,0.320132 0.683592,0.181636 0.23989,-0.138499 0.322097,-0.441749 0.183595,-0.681639 l -1.896485,-3.285156 3.179689,0.851561 c 0.26756,0.07169 0.534403,-0.05887 0.597655,-0.29492 l 0.03125,-0.115233 c 0.06325,-0.236055 -0.101574,-0.482999 -0.369135,-0.554691 L 42.29713,22.442346 39.154303,17.000002 h 6.138672 l 3.035156,3.035155 c 0.19586,0.195877 0.493206,0.215776 0.666011,0.04297 l 0.08398,-0.08398 c 0.172803,-0.172804 0.1529,-0.470148 -0.04297,-0.666016 L 46.707032,17 h 3.79297 c 0.277,0 0.500001,-0.222996 0.499999,-0.499999 0,-0.277 -0.222997,-0.500003 -0.5,-0.500001 l -3.792969,1e-6 2.328126,-2.328126 c 0.195869,-0.195865 0.21577,-0.493213 0.04297,-0.666015 l -0.08398,-0.08398 C 48.821346,12.749078 48.524001,12.768979 48.32813,12.96485 L 45.29297,16.000003 38,16 34.522344,9.975007 35.633671,5.82852 C 35.705361,5.5609595 35.572851,5.2941165 35.3368,5.2308639 l -0.115234,-0.03125 c -0.02952,-0.0079 -0.05839,-0.01072 -0.0879,-0.011722 z"
       sodipodi:nodetypes="ccccscccccccccsssscssscsssscccccccccscccccccccccccccscccccccccsssscssscsssscccccccc"
       inkscape:transform-center-x="0.063117"
       inkscape:transform-center-y="0.18674865"
       style="fill-opacity:1;fill:#1e2431"
       class="ColorScheme-Text" />
  </g>
</svg>
